<svg width="11" height="13" viewBox="0 0 11 13" fill="none" xmlns="http://www.w3.org/2000/svg">
<path fill-rule="evenodd" clip-rule="evenodd" d="M0.25 5.91663C0.25 3.01713 2.6005 0.666626 5.5 0.666626C8.3995 0.666626 10.75 3.01713 10.75 5.91663C10.75 7.68202 9.6943 9.17848 8.47789 10.2327L6.47039 11.9725C5.91349 12.4552 5.08651 12.4552 4.52961 11.9725L2.52211 10.2327C1.3057 9.17849 0.25 7.68202 0.25 5.91663ZM5.5 7.08329C6.14433 7.08329 6.66667 6.56096 6.66667 5.91663C6.66667 5.27229 6.14433 4.74996 5.5 4.74996C4.85567 4.74996 4.33333 5.27229 4.33333 5.91663C4.33333 6.56096 4.85567 7.08329 5.5 7.08329Z" fill="#007BFF"/>
</svg>
