<svg width="20" height="14" viewBox="0 0 20 14" fill="none" xmlns="http://www.w3.org/2000/svg">
<path fill-rule="evenodd" clip-rule="evenodd" d="M0.199708 7C0.199708 7.18565 0.273457 7.3637 0.404733 7.49497C0.536008 7.62625 0.714056 7.7 0.899708 7.7L17.4099 7.7L13.0041 12.1044C12.8727 12.2358 12.7988 12.4141 12.7988 12.6C12.7988 12.7859 12.8727 12.9642 13.0041 13.0956C13.1355 13.227 13.3138 13.3009 13.4997 13.3009C13.6856 13.3009 13.8639 13.227 13.9953 13.0956L19.5953 7.4956C19.6605 7.43057 19.7122 7.35333 19.7475 7.26829C19.7828 7.18324 19.801 7.09207 19.801 7C19.801 6.90792 19.7828 6.81676 19.7475 6.73171C19.7122 6.64667 19.6605 6.56942 19.5953 6.5044L13.9953 0.904398C13.8639 0.772956 13.6856 0.699114 13.4997 0.699114C13.3138 0.699114 13.1356 0.772956 13.0041 0.904398C12.8727 1.03584 12.7988 1.21411 12.7988 1.4C12.7988 1.58588 12.8727 1.76416 13.0041 1.8956L17.4099 6.3L0.899708 6.3C0.714056 6.3 0.536008 6.37375 0.404733 6.50502C0.273457 6.6363 0.199708 6.81435 0.199708 7Z" fill="white"/>
</svg>
