<svg width="20" height="14" viewBox="0 0 20 14" fill="none" xmlns="http://www.w3.org/2000/svg">
<path fill-rule="evenodd" clip-rule="evenodd" d="M19.8003 7C19.8003 7.18565 19.7265 7.3637 19.5953 7.49497C19.464 7.62625 19.2859 7.7 19.1003 7.7L2.59009 7.7L6.99589 12.1044C7.12733 12.2358 7.20118 12.4141 7.20118 12.6C7.20118 12.7859 7.12733 12.9642 6.99589 13.0956C6.86445 13.227 6.68618 13.3009 6.50029 13.3009C6.31441 13.3009 6.13613 13.227 6.00469 13.0956L0.404691 7.4956C0.339502 7.43057 0.287782 7.35333 0.252494 7.26829C0.217205 7.18324 0.199041 7.09207 0.199041 7C0.199041 6.90792 0.217204 6.81676 0.252494 6.73171C0.287782 6.64667 0.339502 6.56942 0.404691 6.5044L6.00469 0.904398C6.13613 0.772956 6.31441 0.699114 6.50029 0.699114C6.68618 0.699114 6.86445 0.772956 6.99589 0.904398C7.12733 1.03584 7.20117 1.21411 7.20117 1.4C7.20117 1.58588 7.12733 1.76416 6.99589 1.8956L2.59009 6.3L19.1003 6.3C19.2859 6.3 19.464 6.37375 19.5953 6.50502C19.7265 6.6363 19.8003 6.81435 19.8003 7Z" fill="#2C2C2C99"/>
</svg>
